<?xml version="1.0" standalone="no"?>
<!DOCTYPE svg PUBLIC "-//W3C//DTD SVG 1.1//EN" "http://www.w3.org/Graphics/SVG/1.1/DTD/svg11.dtd" >
<!--
2013-9-30: Created.
-->
<svg>
<metadata>
Created by iconfont
</metadata>
<defs>

<font id="iconfont" horiz-adv-x="1024" >
  <font-face
    font-family="iconfont"
    font-weight="500"
    font-stretch="normal"
    units-per-em="1024"
    ascent="896"
    descent="-128"
  />
    <missing-glyph />
    
    <glyph glyph-name="x" unicode="x" horiz-adv-x="1001"
d="M281 543q-27 -1 -53 -1h-83q-18 0 -36.5 -6t-32.5 -18.5t-23 -32t-9 -45.5v-76h912v41q0 16 -0.5 30t-0.5 18q0 13 -5 29t-17 29.5t-31.5 22.5t-49.5 9h-133v-97h-438v97zM955 310v-52q0 -23 0.5 -52t0.5 -58t-10.5 -47.5t-26 -30t-33 -16t-31.5 -4.5q-14 -1 -29.5 -0.5
t-29.5 0.5h-32l-45 128h-439l-44 -128h-29h-34q-20 0 -45 1q-25 0 -41 9.5t-25.5 23t-13.5 29.5t-4 30v167h911zM163 247q-12 0 -21 -8.5t-9 -21.5t9 -21.5t21 -8.5q13 0 22 8.5t9 21.5t-9 21.5t-22 8.5zM316 123q-8 -26 -14 -48q-5 -19 -10.5 -37t-7.5 -25t-3 -15t1 -14.5
t9.5 -10.5t21.5 -4h37h67h81h80h64h36q23 0 34 12t2 38q-5 13 -9.5 30.5t-9.5 34.5q-5 19 -11 39h-368zM336 498v228q0 11 2.5 23t10 21.5t20.5 15.5t34 6h188q31 0 51.5 -14.5t20.5 -52.5v-227h-327z" />
    

    
    <glyph glyph-name="ttpodicon" unicode="&#58903;" d="M838.116 496.77l39.584-39.584-365.721-365.646-365.679 365.646 39.583 39.584 326.12-326.127z"  horiz-adv-x="1024" />

    
    <glyph glyph-name="youyou" unicode="&#58888;" d="M694.6304 302.6624l-410.112-412.416-27.648 27.8016 382.464 384.6144-382.464 384.6144 27.648 27.8016L694.6304 302.6624z"  horiz-adv-x="1024" />

    
    <glyph glyph-name="tianjia" unicode="&#58905;" d="M873.152 661.152c-199.488 199.488-522.88 199.488-722.368 0s-199.488-522.88 0-722.368 522.88-199.488 722.368 0S1072.64 461.728 873.152 661.152zM185.408-26.592c-180.352 180.352-180.352 472.768 0 653.184s472.768 180.352 653.184 0 180.352-472.768 0-653.184S365.76-206.944 185.408-26.592zM548.48 81.952 548.48 263.648l181.952 0c20.224 0 36.736 16.512 36.736 36.736l0 0c0 20.224-16.512 36.736-36.736 36.736L548.48 337.12 548.48 518.816c0 20.224-16.512 36.736-36.736 36.736l0 0c-20.224 0-36.736-16.512-36.736-36.736L475.008 337.12 293.568 337.12c-20.224 0-36.736-16.512-36.736-36.736l0 0c0-20.224 16.512-36.736 36.736-36.736l181.44 0 0-181.696c0-20.224 16.512-36.736 36.736-36.736l0 0C531.968 45.152 548.48 61.728 548.48 81.952z"  horiz-adv-x="1024" />

    
    <glyph glyph-name="jianlixiangqing-gerenjineng" unicode="&#59072;" d="M319.808 215.03999999999996l231.104 0c9.984-15.424 21.312-29.76 34.112-42.688L319.808 172.35199999999998 319.808 215.03999999999996zM319.808 282.55999999999995l200.064 0C515.84 296.32000000000005 512.896 310.592 511.168 325.24800000000005L319.808 325.24800000000005 319.808 282.55999999999995zM319.808 392.768l191.936 0c1.984 14.592 4.928 28.928 9.28 42.688L319.808 435.456 319.808 392.768zM692.928 106.75199999999995l0-37.312c0-17.792-14.528-32.32-32.32-32.32L175.68 37.120000000000005c-17.792 0-32.256 14.528-32.256 32.32L143.424 610.304l160.704 133.696 0-141.952L219.52 602.048 219.52 559.36l127.296 0 0 207.616 313.792 0c17.792 0 32.32-14.528 32.32-32.32l0-127.616c13.76 4.288 28.032 7.232 42.688 9.216l0 118.4c0 41.344-33.6 75.008-74.944 75.008l-344.32 0L100.736 630.2719999999999l0-560.832c0-41.344 33.6-75.008 74.944-75.008l484.928 0c41.344 0 75.008 33.6 75.008 75.008l0 28.096C720.96 99.51999999999998 706.688 102.46400000000006 692.928 106.75199999999995zM261.888 435.392L206.784 435.392l0-42.688 55.104 0L261.888 435.392zM206.784 172.41600000000005l55.104 0L261.888 215.03999999999996 206.784 215.03999999999996 206.784 172.41600000000005zM261.888 325.24800000000005L206.784 325.24800000000005l0-42.688 55.104 0L261.888 325.24800000000005zM882.816 421.184l-33.856 25.92-86.08-112.384-77.504 59.392-25.984-33.856 111.36-85.312L882.816 421.184zM986.56 356.86400000000003c0 118.848-96.704 215.552-215.552 215.552S555.52 475.712 555.52 356.86400000000003s96.704-215.552 215.552-215.552S986.56 238.01599999999996 986.56 356.86400000000003zM943.872 356.86400000000003c0-95.296-77.504-172.864-172.864-172.864S598.208 261.568 598.208 356.86400000000003s77.504 172.864 172.864 172.864S943.872 452.16 943.872 356.86400000000003z"  horiz-adv-x="1024" />

    
    <glyph glyph-name="icon40" unicode="&#58937;" d="M950.54 460.609l-1.285 1.31-381.875 337.103c-14.987 14.461-34.58 22.396-55.427 22.396-20.846 0-40.438-7.935-55.426-22.396l-383.162-338.414c-22.902-23.342-29.5-57.957-16.81-88.187 5.885-14.020 15.474-26.021 27.729-34.705 13.462-9.54 29.409-14.583 46.116-14.583h10.045v-293.904c0-44.209 35.967-80.176 80.176-80.176h135.47c44.209 0 80.177 35.967 80.177 80.176v166.404l149.39 0v-166.404c0-44.209 35.967-80.176 80.176-80.176h135.47c44.209 0 80.176 35.967 80.176 80.176v293.904h12.023c16.707 0 32.654 5.042 46.116 14.583 12.255 8.684 21.844 20.685 27.729 34.705 12.691 30.231 6.093 64.846-16.809 88.188zM893.505 374.303h-63.191v-345.071c0-16.021-12.987-29.008-29.008-29.008h-135.471c-16.021 0-29.008 12.987-29.008 29.008v217.571l-251.727 0v-217.571c0-16.021-12.987-29.008-29.009-29.008l-135.47-0c-16.021 0-29.008 12.987-29.008 29.008v345.071h-61.212c-25.844 0-38.786 31.846-20.512 50.471l381.553 336.817c5.664 5.773 13.088 8.66 20.512 8.66 7.424 0 14.848-2.887 20.512-8.66l381.553-336.817c18.272-18.625 5.33-50.471-20.514-50.471z"  horiz-adv-x="1025" />

    
    <glyph glyph-name="xiangshang" unicode="&#59023;" d="M886.736265 186.898947c-8.43409-8.436136-22.10853-8.436136-30.544667 0-0.796132 0.797156-1.49505 1.654686-2.140757 2.536776l-0.127913-0.132006L511.767198 531.459446l-342.15266-342.156754-0.128937 0.132006c-0.64673-0.881067-1.343601-1.738597-2.139733-2.536776-8.43716-8.436136-22.109554-8.436136-30.546713 0-8.435113 8.432043-8.435113 22.110577 0 30.54262 0.799202 0.796132 1.654686 1.496074 2.537799 2.14178l-0.270153 0.268106 357.426529 357.428575 0 0 0 0 0.002047 0 0 0c4.219091 4.218068 9.745968 6.328126 15.270798 6.328126 5.528923 0 11.0558-2.110057 15.273868-6.328126l0 0 357.428575-357.428575-0.270153-0.268106c0.884137-0.645706 1.739621-1.344624 2.536776-2.14178C895.173424 209.009524 895.173424 195.33099 886.736265 186.898947z"  horiz-adv-x="1024" />

    
    <glyph glyph-name="zhiweixiangqing-xiugaizhuangtai" unicode="&#58887;" d="M960.030571-4.010081000000014L63.967382-4.010081000000014l448.031083 776.021186L960.030571-4.010081000000014zM110.877785 23.099346999999966l802.224987 0L511.998465 717.797365 110.877785 23.099346999999966zM480.041636 142.98069099999998c0 21.961174 11.70867 32.682353 32.196283 32.682353 20.48659 0 31.718399-10.721179 31.718399-32.682353 0-21.459754-11.232832-31.710212-31.718399-31.710212C491.750305 111.269455 480.041636 121.520937 480.041636 142.98069099999998zM542.014082 420.109406l-9.289574-194.192817c-0.457418-10.721179-6.817266-18.526959-20.48659-18.526959-14.623046 0-20.98187 7.806803-21.458731 18.526959l-8.776897 194.192817c-0.970094 19.046798 10.720156 27.339672 30.235628 27.339672C531.275507 447.449078 542.987247 439.156204 542.014082 420.109406z"  horiz-adv-x="1024" />

    
    <glyph glyph-name="jianlixiangqing-gerenpingjia" unicode="&#59006;" d="M986.759841 475.543949L912.810618 549.494195c-23.260773 23.260773-61.153802 23.246447-84.443227-0.014326l-15.972786-15.972786 0 175.253466c0 61.780065-50.252521 112.046912-112.032586 112.046912L166.141948 820.807461c-61.780065 0-112.032586-50.266847-112.032586-112.046912L54.109362 94.52816600000006c0-61.780065 50.252521-112.032586 112.032586-112.032586l534.219047 0c61.781088 0 112.032586 50.252521 112.033609 112.032586L812.394604 216.63417800000002 986.759841 390.998391C1010.078942 414.303166 1010.078942 452.240197 986.759841 475.543949zM752.697991 94.52816600000006c0-28.857235-23.478737-52.335972-52.335972-52.335972L166.141948 42.19219399999997c-28.857235 0-52.335972 23.478737-52.335972 52.335972l0 614.232382c0 28.871561 23.478737 52.350298 52.335972 52.350298l534.220071 0c28.857235 0 52.335972-23.478737 52.335972-52.350298l0-234.17953 0.77055 0L552.606837 273.71931400000005l-41.420365-199.856817 199.856817 41.420365 41.654702 41.654702L752.697991 94.52816600000006zM599.754646 207.08059100000003l44.646849-44.649919-56.320727-11.673877L599.754646 207.08059100000003zM701.296297 189.948399l-74.019831 74.026994 170.46951 170.46951 74.0229-74.0229L701.296297 189.948399zM913.976164 402.629289l-74.0229 74.0229 30.634718 30.634718 73.964572-74.081229L913.976164 402.629289zM557.962821 576.748932L196.548468 576.748932c-16.632819 0-30.117948 15.601326-30.117948 32.234145s13.485129 32.234145 30.117948 32.234145l361.414353 0c16.632819 0 30.117948-15.601326 30.117948-32.234145S574.59564 576.748932 557.962821 576.748932zM557.962821 370.15876000000003L196.548468 370.15876000000003c-16.632819 0-30.117948 15.601326-30.117948 32.234145s13.485129 32.234145 30.117948 32.234145l361.414353 0c16.632819 0 30.117948-15.601326 30.117948-32.234145S574.59564 370.15876000000003 557.962821 370.15876000000003zM381.940852 228.03585599999997L272.229125 228.03585599999997l-6.402827 0-69.2809 0c-16.628726 0-30.115901-15.60542-30.115901-32.234145s13.487176-32.234145 30.115901-32.234145l69.2809 0 6.402827 0 109.711727 0c16.628726 0 30.115901 15.60542 30.115901 32.234145S398.569578 228.03585599999997 381.940852 228.03585599999997z"  horiz-adv-x="1024" />

    
    <glyph glyph-name="edit-zhiwei-zhiweixinxi" unicode="&#59044;" d="M259.940752 833.231421l0-476.221122L63.849702 357.01029900000003l0-308.143079c0-61.771879 50.253544-112.052029 112.052029-112.052029l672.312172 0c61.769832 0 112.052029 50.28015 112.052029 112.052029l0 784.364201L259.940752 833.231421zM259.940752 48.867219999999975c0-30.857798-25.139563-56.026014-56.026014-56.026014l-28.013007 0c-30.912034 0-56.026014 25.168216-56.026014 56.026014L119.875716 300.984285l140.065036 0L259.940752 48.867219999999975zM904.239917 48.867219999999975c0-30.857798-25.139563-56.026014-56.026014-56.026014L300.373627-7.1587939999999435c9.655917 16.576537 15.592117 35.561937 15.592117 56.026014L315.965743 777.205407l588.273151 0L904.238894 48.867219999999975zM848.213903 721.179392L371.992781 721.179392l0-56.026014 476.221122 0L848.213903 721.179392zM848.213903 244.95826999999997L371.992781 244.95826999999997l0-56.026014 476.221122 0L848.213903 244.95826999999997zM848.213903 132.90624200000002L371.992781 132.90624200000002l0-56.026014 476.221122 0L848.213903 132.90624200000002zM848.213903 609.127364L371.992781 609.127364l0-308.143079 476.221122 0L848.213903 609.127364zM792.187889 357.01029900000003L428.018795 357.01029900000003 428.018795 553.101349l364.169093 0L792.187889 357.01029900000003z"  horiz-adv-x="1024" />

    
    <glyph glyph-name="jianlixiangqing-qiuzhiyixiang" unicode="&#59074;" d="M512.011256 783.936715c-220.530672 0-399.959228-179.406043-399.959228-399.936715s179.428555-399.936715 399.959228-399.936715 399.936715 179.406043 399.936715 399.936715S732.541929 783.936715 512.011256 783.936715zM535.035646 30.854983999999945L535.035646 185.280076c0 12.726859-10.29753 23.024389-23.024389 23.024389s-23.024389-10.29753-23.024389-23.024389l0-154.425092C312.143183 42.263825 170.254615 184.13397299999997 158.843728 360.97561099999996l154.447605 0c12.726859 0 23.024389 10.29753 23.024389 23.024389s-10.29753 23.024389-23.024389 23.024389l-154.447605 0c11.410887 176.841637 153.299455 318.711785 330.143139 330.120626l0-154.425092c0-12.726859 10.29753-23.024389 23.024389-23.024389s23.024389 10.29753 23.024389 23.024389L535.035646 737.1450159999999c176.841637-11.408841 318.711785-153.278989 330.120626-330.120626L710.73118 407.024389c-12.726859 0-23.024389-10.29753-23.024389-23.024389s10.29753-23.024389 23.024389-23.024389l154.425092 0C853.747431 184.13397299999997 711.877283 42.263825 535.035646 30.854983999999945z"  horiz-adv-x="1024" />

    
    <glyph glyph-name="jianlixiangqing-yuxuzhudongyaoqing" unicode="&#58882;" d="M390.05567 53.13133700000003c-7.856945 0-15.712867 2.997264-21.707394 8.991792l-322.853106 322.852082c-11.988032 11.989055-11.988032 31.426757 0 43.415812 11.989055 11.989055 31.426757 11.989055 43.415812 0l301.145711-301.145711 562.088792 562.088792c11.988032 11.989055 31.426757 11.989055 43.414789 0 11.989055-11.989055 11.989055-31.426757 0-43.415812l-583.796186-583.796186C405.768537 56.128601 397.912615 53.13133700000003 390.05567 53.13133700000003z"  horiz-adv-x="1024" />

    
    <glyph glyph-name="jianlixiangqing-yinsishezhi" unicode="&#59299;" d="M921.31634 559.11532c-22.397103 52.953026-54.457286 100.506065-95.288227 141.337006s-88.382956 72.890101-141.337006 95.288227c-54.832839 23.193235-113.069195 34.952047-173.090197 34.952047S393.34253 818.9337869999999 338.508667 795.740552c-52.953026-22.397103-100.506065-54.456263-141.337006-95.288227s-72.890101-88.38398-95.288227-141.337006c-23.193235-54.833863-34.952047-113.070218-34.952047-173.09122s11.759835-118.257358 34.952047-173.090197c22.397103-52.954049 54.456263-100.506065 95.288227-141.337006s88.38398-72.891124 141.337006-95.288227c54.833863-23.192212 113.070218-34.952047 173.09122-34.952047s118.257358 11.759835 173.090197 34.952047c52.954049 22.397103 100.506065 54.457286 141.337006 95.288227s72.891124 88.382956 95.288227 141.337006c23.192212 54.832839 34.952047 113.069195 34.952047 173.090197S944.508551 504.281457 921.31634 559.11532zM511.599887-19.758764000000042c-223.74897 0-405.782863 182.033893-405.782863 405.782863S287.850917 791.806963 511.599887 791.806963s405.782863-182.033893 405.782863-405.782863S735.348857-19.758764000000042 511.599887-19.758764000000042zM513.722224 629.570975c-123.564223 0-210.223932-40.800241-213.852576-42.536792l-9.559727-4.576225 0.260943-10.595312c1.910513-77.657684 14.155395-148.35177 36.394908-210.119555 17.939581-49.824779 42.387389-93.995791 72.662927-131.287115 52.173267-64.261583 103.59031-85.8646 105.752556-86.751806l6.811126-2.796696 6.611581 3.239787c49.331545 24.172539 91.308589 62.045101 124.766608 112.566752 26.402323 39.865963 47.554062 87.645153 62.86784 142.011364 25.898857 91.938945 26.196639 170.252569 26.196639 173.540452l0 10.836813-9.975189 4.234441C656.645354 615.361345 586.349335 629.570975 513.722224 629.570975zM674.919557 407.604604c-21.904892-77.763085-67.991534-179.942255-163.494655-230.471069-14.439874 7.615445-50.995441 29.836539-87.727017 75.638701-42.568515 53.080939-93.948719 149.446707-100.045577 308.853253 25.049512 10.093892 96.749508 35.20071 190.068893 35.20071 64.446801 0 126.918621-11.905144 185.865151-35.402301C698.574303 537.2953620000001 694.15669 475.898013 674.919557 407.604604zM444.061678 437.530171c0-21.823028 10.719132-42.376133 28.326139-54.975079l0-44.122917c0-20.966521 17.058514-38.025035 38.026058-38.025035 20.966521 0 38.025035 17.058514 38.025035 38.025035l0 42.493813c19.082614 12.405541 30.699186 33.56035 30.699186 56.603159 0 37.241182-30.297027 67.538209-67.538209 67.538209S444.061678 474.771353 444.061678 437.530171zM558.671972 437.530171c0-17.543561-9.665127-33.518395-25.224498-41.692564l-5.474688-2.87549 0-54.529941c0-9.682523-7.876388-17.558911-17.558911-17.558911s-17.559934 7.876388-17.559934 17.558911l0 55.522548-5.050016 2.966565c-14.358009 8.435113-23.277146 23.995507-23.277146 40.608883 0 25.955138 21.116947 47.072085 47.072085 47.072085S558.671972 463.486332 558.671972 437.530171z"  horiz-adv-x="1024" />

    
    <glyph glyph-name="wode" unicode="&#58890;" d="M512-33.792c-206.848 0-368.64 38.912-368.64 90.112 0 135.168 75.776 266.24 194.56 331.776 2.048 2.048 4.096 2.048 6.144 4.096l10.24 6.144 10.24-8.192c32.768-24.576 86.016-51.2 147.456-51.2 61.44 0 112.64 28.672 147.456 51.2l10.24 8.192 10.24-6.144c6.144-2.048 10.24-6.144 18.432-10.24C811.008 310.272 880.64 187.392 880.64 56.32 880.64 5.12 718.848-33.792 512-33.792zM184.32 60.416c16.384-12.288 106.496-53.248 327.68-53.248s311.296 40.96 327.68 53.248c-2.048 114.688-63.488 223.232-159.744 282.624-2.048 2.048-4.096 2.048-6.144 4.096-51.2-34.816-106.496-51.2-159.744-51.2-53.248 0-108.544 18.432-159.744 53.248C251.904 289.792 186.368 179.2 184.32 60.416zM512 365.568c-135.168 0-243.712 108.544-243.712 243.712C268.288 744.448 376.832 855.04 512 855.04s243.712-110.592 243.712-243.712C755.712 476.16 645.12 365.568 512 365.568zM512 814.08c-112.64 0-202.752-92.16-202.752-202.752 0-112.64 90.112-202.752 202.752-202.752 112.64 0 202.752 92.16 202.752 202.752C714.752 721.92 622.592 814.08 512 814.08zM518.144 746.496c-75.776 0-137.216-61.44-137.216-139.264 0-10.24-8.192-16.384-16.384-16.384-10.24 0-16.384 8.192-16.384 16.384 0 96.256 77.824 174.08 172.032 174.08 10.24 0 16.384-8.192 16.384-16.384C534.528 754.688 526.336 746.496 518.144 746.496M368.64 541.696m-20.48 0a1 1 0 1 0 40.96 0 1 1 0 1 0-40.96 0Z"  horiz-adv-x="1024" />

    
    <glyph glyph-name="zhanghao" unicode="&#58913;" d="M880.286366-63.979918c-12.090363 0-21.877263 9.7869-21.877263 21.855774 0 93.327572-36.33351 181.00547-102.30606 246.976998-8.528234 8.572236-8.528234 22.409382 0 30.918173 8.507768 8.529257 22.345937 8.529257 30.876218 0C861.223195 161.526069 902.099161 62.845583 902.099161-42.124144 902.099161-54.193017 892.354216-63.979918 880.286366-63.979918L880.286366-63.979918zM509.029854 307.232592c-93.307106-0.042979-181.00547-36.365232-246.945275-102.380762-66.035996-65.971527-102.33676-153.648402-102.33676-246.976998 0-12.068873-9.775644-21.855774-21.844517-21.855774-12.079106 0-21.823028 9.7869-21.823028 21.855774 0 104.969727 40.886199 203.650213 115.130134 277.851169 74.160024 74.213235 172.860976 115.142413 277.82047 115.142413 12.068873 0 21.85475-9.743922 21.85475-21.813818C530.885628 317.008236 521.098727 307.232592 509.029854 307.232592L509.029854 307.232592zM509.0626 306.848852c-144.469346 0-261.999133 117.538997-261.999133 262.009366S364.593254 830.857351 509.0626 830.857351c144.523581 0 262.052345-117.528763 262.052345-261.999133S653.586181 306.848852 509.0626 306.848852L509.0626 306.848852zM509.0626 787.189805c-120.354112 0-218.330564-97.934496-218.330564-218.330564 0-120.408347 97.976452-218.330564 218.330564-218.330564 120.408347 0 218.383776 97.92324 218.383776 218.330564C727.446375 689.255309 629.470947 787.189805 509.0626 787.189805L509.0626 787.189805z"  horiz-adv-x="1024" />

    
    <glyph glyph-name="guanbi" unicode="&#58906;" d="M512 896C229.187368 896 0 666.812632 0 384 0 101.187368 229.187368-128 512-128 794.812632-128 1024 101.187368 1024 384 1024 666.812632 794.812632 896 512 896ZM512-74.105263C259.368421-74.105263 53.894737 131.368421 53.894737 384 53.894737 636.631579 259.368421 842.105263 512 842.105263 764.631579 842.105263 970.105263 636.631579 970.105263 384 970.105263 131.368421 764.631579-74.105263 512-74.105263ZM550.130526 384 719.629474 553.633684C730.273684 564.143158 730.273684 581.12 719.629474 591.629474 709.12 602.273684 692.143158 602.273684 681.633684 591.629474L512 422.130526 342.366316 591.629474C331.856842 602.273684 314.88 602.273684 304.370526 591.629474 293.726316 581.12 293.726316 564.143158 304.370526 553.633684L473.869474 384 304.370526 214.366316C293.726316 203.856842 293.726316 186.88 304.370526 176.370526 309.625263 171.115789 316.496842 168.421053 323.368421 168.421053 330.24 168.421053 337.111579 171.115789 342.366316 176.370526L512 345.869474 681.633684 176.370526C686.888421 171.115789 693.76 168.421053 700.631579 168.421053 707.503158 168.421053 714.374737 171.115789 719.629474 176.370526 730.273684 186.88 730.273684 203.856842 719.629474 214.366316L550.130526 384Z"  horiz-adv-x="1024" />

    
    <glyph glyph-name="mima" unicode="&#59058;" d="M757.621117 496.508423l-27.533077 0L730.08804 603.190141c0 128.253012-91.396593 228.690516-221.245963 228.690516-130.370233 0-219.212654-102.577237-219.212654-228.690516L289.629423 496.508423l-27.533077 0c-60.71992 0-110.107747-50.130747-110.107747-111.790062l0-335.327208c0-61.659315 49.387827-111.790062 110.107747-111.790062l495.52477 0c60.71992 0 110.109794 50.130747 110.109794 111.790062l0 335.327208C867.73091 446.377676 818.341037 496.508423 757.621117 496.508423L757.621117 496.508423zM344.674087 603.190141c0 95.241154 64.147996 172.794461 164.169013 172.794461 98.974176 0 166.178787-75.894528 166.178787-172.794461L675.021887 496.508423 344.674087 496.508423 344.674087 603.190141 344.674087 603.190141zM812.663734 49.391153c0-30.829146-24.694425-55.895031-55.042617-55.895031L262.096347-6.503878c-30.349215 0-55.06513 25.065885-55.06513 55.895031l0 335.327208c0 30.830169 24.715915 55.895031 55.06513 55.895031l495.52477 0c30.348192 0 55.042617-25.066909 55.042617-55.895031L812.663734 49.391153 812.663734 49.391153zM509.846964 328.866309c-30.392194 0-55.04364-25.065885-55.04364-55.93801 0-20.691251 11.08036-38.740326 27.533077-48.40443l0-91.335195c0-15.414061 12.314467-27.90249 27.510564-27.90249 15.217586 0 27.533077 12.488429 27.533077 27.90249l0 91.338265c16.455787 9.665127 27.5341 27.713178 27.5341 48.40136C564.915164 303.801447 540.261671 328.866309 509.846964 328.866309L509.846964 328.866309z"  horiz-adv-x="1024" />

    
    <glyph glyph-name="jianlixiangqing-gerenxinxi" unicode="&#59012;" d="M846.981 745.578h-672.119c-53.777 0-94.844-43.019-94.844-94.647v-533.863c0-51.626 43.019-94.647 94.844-94.647h674.271c51.626 0 94.844 43.019 94.844 94.647v533.863c-2.151 51.626-43.218 94.647-96.994 94.647zM902.914 117.06799999999998h-2.151c0-30.115-23.66-53.777-53.777-53.777h-672.119c-30.115 0-53.777 23.66-53.777 53.777v533.863c0 30.115 23.66 53.777 53.777 53.777h674.271c30.115 0 53.777-23.66 53.777-53.777v-533.863zM485.014 332.374c-15.06 12.906-32.267 23.66-49.475 30.115 30.115 23.66 51.626 60.23 51.626 101.103 0 68.834-55.926 124.763-124.958 124.763-69.033 0-124.958-55.926-124.958-124.763 0-40.87 19.361-77.441 51.626-101.103-17.209-6.455-34.418-17.209-49.475-30.115-34.418-27.965-55.926-68.834-64.531-111.86-2.151-10.756 6.455-21.511 17.209-23.66 10.756-2.151 21.511 6.455 23.66 17.209 10.756 70.985 71.182 124.763 144.319 124.763 73.334 0 135.716-53.777 146.47-124.763 2.151-10.756 10.756-17.209 19.361-17.209h2.151c10.756 2.151 19.361 12.906 17.209 23.66-4.107 43.019-27.769 83.89-60.23 111.86zM360.053 381.84900000000005c-45.173 0-84.087 38.72-84.087 83.89 0 45.173 36.571 83.89 84.087 83.89 47.325 0 84.087-38.72 84.087-83.89 0-45.173-38.72-83.89-84.087-83.89zM827.623 547.4839999999999h-271.427c-10.756 0-21.511-8.603-21.511-21.511 0-10.756 8.603-21.511 21.511-21.511h271.427c10.756 0 21.511 8.603 21.511 21.511s-8.603 21.511-21.511 21.511zM827.623 416.267h-271.427c-10.756 0-21.511-8.603-21.511-21.511s8.603-21.511 21.511-21.511h271.427c10.756 0 21.511 8.603 21.511 21.511s-8.603 21.511-21.511 21.511zM827.623 282.89700000000005h-228.406c-10.756 0-21.511-8.603-21.511-21.511 0-10.756 8.603-21.511 21.511-21.511h228.406c10.756 0 21.511 8.603 21.511 21.511s-8.603 21.511-21.511 21.511z"  horiz-adv-x="1024" />

    
    <glyph glyph-name="xiaoxi" unicode="&#58919;" d="M544 798.976V864h-64v-65.024c-190.464-12.672-320-140.352-320-382.976V128h64V416c0 192 115.456 320 288 320 180.544 0 288-128 288-320V128h64V416c0 242.88-122.496 370.56-320 382.976zM672 64a160 160 0 1 0-320 0h64a96 96 0 0 1 192 0h64zM64 128h896v-64H64v64z"  horiz-adv-x="1024" />

    
    <glyph glyph-name="jianlixiangqing-gerenbiaoqian" unicode="&#58880;" d="M942.592 635.264c-12.224-26.304-42.048-48.64-78.656-67.136v42.816c22.848 13.056 39.808 26.944 46.464 41.344 17.28 36.736 17.152 73.472-0.256 100.736-16.128 25.408-46.08 40-82.048 40-68.16 0-121.216-141.248-146.304-245.184L667.2 536.96l-23.104 34.752C669.248 670.208 725.824 832 824.576 832c105.92 0 165.504-94.976 118.016-196.736zM647.488 477.888c17.664 0 32.576 11.776 37.504 27.904 11.072 9.984 23.872 20.928 38.592 30.656 1.472-6.144 2.624-12.544 2.624-19.136 0-43.456-35.2-78.656-78.656-78.656s-78.656 35.2-78.656 78.656c0 32.768 19.968 60.8 48.512 72.64-6.656-31.808-9.28-52.992-9.28-52.992s-11.712 5.44 0-19.648c0-21.76 17.664-39.424 39.36-39.424zM529.6 655.232c-11.2 0-31.36-8.32-39.296-16.256L104.192 253.50400000000002 382.4-24.76800000000003l386.112 386.176c7.936 7.936 16.32 28.16 16.384 39.36l0.064 88.32c0.128-0.064 0.192-0.064 0.256-0.128v72.512h-0.128l0.128 94.016h-33.088c6.4 14.912 12.736 28.096 19.008 39.36h14.144c21.696 0 39.296-17.792 39.296-39.36l-0.128-59.52h0.128v-157.312h-0.32l-0.064-37.888c0-21.632-12.48-51.84-27.904-67.2L410.24-52.48000000000002c-15.296-15.36-40.32-15.36-55.616 0L76.416 225.664c-15.296 15.36-15.296 40.384 0 55.616l386.112 385.536c15.296 15.296 45.504 27.776 67.136 27.776l116.608 0.128a696.894 696.894 0 0 1-12.672-39.36l-104-0.128z m10.176-680l307.392 307.52c7.936 7.872 16.384 28.096 16.384 39.36l0.256 189.696c13.952 8 27.2 16.704 39.36 26.24l-0.32-216c0-21.76-12.544-51.968-27.84-67.264L567.616-52.48000000000002c-15.296-15.36-40.384-15.36-55.68 0l-23.616 23.616 27.84 27.776 23.616-23.68z"  horiz-adv-x="1024" />

    
    <glyph glyph-name="qiye" unicode="&#58977;" d="M188.58496 762.02496h457.38496v-757.76H188.58496zM440.4992 634.24h145.1264V582.912H440.4992V634.24zM440.4992 454.272h145.1264v-52.3776H440.4992v52.3776zM744.81152 277.73440000000005h46.40768V132.60799999999995h-46.40768v145.1264zM744.81152 473.1392h46.40768v-145.13152h-46.40768V473.1392zM245.0944 277.73440000000005h145.152v-51.32288H245.0944v51.32288zM910.976 17.868799999999965V634.24H682.2912V798.4639999999999H146.3552v-780.5952H50.7136v-48.44032h924.672v48.44032h-64.4096z m-49.5104 570.0096v-570.0096H682.2912V587.8784h179.1744z m-225.536 162.1504v-732.16H195.84v732.16h440.0896zM245.0944 454.272h145.152v-52.3776H245.0944v52.3776zM440.4992 277.73440000000005h145.1264v-51.32288H440.4992v51.32288zM245.0944 634.24h145.152V582.912H245.0944V634.24z"  horiz-adv-x="1024" />

    
    <glyph glyph-name="weibiaoti-right" unicode="&#58884;" d="M509.061-116.983c-275.002 0-498.732 223.783-498.732 498.785s223.73 498.732 498.732 498.732 498.785-223.73 498.785-498.732-223.783-498.785-498.785-498.785zM509.060 854.051c-260.384 0-472.249-211.865-472.249-472.249 0-260.436 211.866-472.302 472.249-472.301 260.436 0 472.302 211.866 472.302 472.302 0 260.384-211.865 472.249-472.301 472.249zM387.608 110.561l-18.75 18.697 254.61 254.61-256.94 256.94 18.75 18.697 275.637-275.637z"  horiz-adv-x="1024" />

    
    <glyph glyph-name="xiangzuo" unicode="&#58886;" d="M708.389 780.749l-392.775-399.872 392.775-399.872v66.253l-333.635 333.635 333.635 333.635z"  horiz-adv-x="1024" />

    
    <glyph glyph-name="xinxi" unicode="&#58907;" d="M938.2 691.9H87c-12.7 0-23-10.3-23-23v-573.2c0-12.7 10.3-23 23-23h851.2c12.7 0 23 10.3 23 23V668.9c-0.1 12.6-10.4 23-23 23z m-48.3-40L521.6 318.1c-5.2-4.7-13-4.7-18.1 0L135.2 651.9h754.7zM104 112.7V626.2l372.7-337.7c10.2-9.3 23.1-13.9 35.9-13.9s25.7 4.6 35.9 13.9l372.7 337.7v-513.5H104z"  horiz-adv-x="1024" />

    
    <glyph glyph-name="caogaoxiang" unicode="&#58901;" d="M982.656 409.088l-61.632 61.568a33.024 33.024 0 0 1-46.656-46.656l39.936-40H800V704a64 64 0 0 1-64 64h-448a64 64 0 0 1-64-64v-320H110.976l39.552 39.488a33.152 33.152 0 1 1-47.04 46.976l-62.016-61.952a32.896 32.896 0 0 1-9.472-24.896V128a128 128 0 0 1 128-128h704a128 128 0 0 1 128 128V384h-0.064a32.64 32.64 0 0 1-9.28 25.088zM288 704h448v-320h-448V704z m640-576a64 64 0 0 0-64-64h-704a64 64 0 0 0-64 64V320h832v-192zM640 640H384a32 32 0 0 1 0-64h256a32 32 0 0 1 0 64zM640 512H384a32 32 0 0 1 0-64h256a32 32 0 0 1 0 64z"  horiz-adv-x="1024" />

    
    <glyph glyph-name="caozuochenggong" unicode="&#58972;" d="M443.072 278.84799999999996a24 24 0 0 1 33.888 0l176.256 176.256a23.936 23.936 0 1 1-33.856 33.856l-159.552-159.52-55.36 55.36a23.936 23.936 0 1 1-33.856-33.856l72.48-72.096zM258.656 739.328a25.376 25.376 0 0 1 13.344 3.968 24 24 0 0 1-26.688 39.84 23.776 23.776 0 0 1-6.56-33.056c4.576-6.976 12.16-10.752 19.904-10.752zM189.536 682.56a23.936 23.936 0 1 1-16.928 6.976 24 24 0 0 1 16.96-6.976z m147.776 98.976a24.96 24.96 0 0 1 9.184 1.792 24.032 24.032 0 0 1 12.928 31.264 24.032 24.032 0 0 1-31.264 12.96 24.032 24.032 0 0 1-12.928-31.264c3.776-9.152 12.736-14.72 22.08-14.72zM119.424 617.6320000000001a23.264 23.264 0 0 1 13.344-4 23.744 23.744 0 0 1 13.344 43.616 24 24 0 0 1-33.248-6.56 23.776 23.776 0 0 1 6.56-33.056z m-38.016-81.056a23.968 23.968 0 0 1 31.264 12.96 24.128 24.128 0 0 1-12.96 31.232 23.936 23.936 0 0 1-18.304-44.192z m341.376 270.848c1.6 0 2.976 0.224 4.576 0.416a23.84 23.84 0 1 1-28.096 18.72 24.224 24.224 0 0 1 23.52-19.136zM59.904 449.536a24.224 24.224 0 0 1 28.096 18.912 23.84 23.84 0 1 1-46.848 9.376c-2.56-13.152 5.76-25.696 18.72-28.288z m791.488 273.856A476.8 476.8 0 0 1 512 864a24 24 0 0 1-23.904-23.904c0-13.12 10.752-23.904 23.904-23.904 238.4 0 432.192-193.792 432.192-432.192S750.4-48.19200000000001 512-48.19200000000001 79.808 145.60000000000002 79.808 384a24 24 0 0 1-23.904 23.904A24 24 0 0 1 32 384a476.8 476.8 0 0 1 140.608-339.392A476.8 476.8 0 0 1 512-96a476.8 476.8 0 0 1 339.392 140.608A476.8 476.8 0 0 1 992 384a476.8 476.8 0 0 1-140.608 339.392z"  horiz-adv-x="1024" />

    
    <glyph glyph-name="liebiao" unicode="&#59400;" d="M931.84 358.4H276.48c-13.824 0-25.6 11.264-25.6 25.6 0 13.824 11.264 25.6 25.6 25.6h655.36c14.336 0 25.6-11.264 25.6-25.6s-11.264-25.6-25.6-25.6zM931.84 105.472H276.48c-13.824 0-25.6 11.264-25.6 25.6s11.264 25.6 25.6 25.6h655.36c14.336 0 25.6-11.264 25.6-25.6s-11.264-25.6-25.6-25.6zM931.84 611.328H276.48c-13.824 0-25.6 11.264-25.6 25.6 0 13.824 11.264 25.6 25.6 25.6h655.36c14.336 0 25.6-11.264 25.6-25.6 0-13.824-11.264-25.6-25.6-25.6zM113.664 636.928m-51.2 0a51.2 51.2 0 1 1 102.4 0 51.2 51.2 0 1 1-102.4 0ZM113.664 384m-51.2 0a51.2 51.2 0 1 1 102.4 0 51.2 51.2 0 1 1-102.4 0ZM113.664 131.072m-51.2 0a51.2 51.2 0 1 1 102.4 0 51.2 51.2 0 1 1-102.4 0Z"  horiz-adv-x="1024" />

    
    <glyph glyph-name="jianlixiangqing-gongzuojingli" unicode="&#58881;" d="M889.054 671.263h-115.402v31.545c0 77.061-62.681 139.715-139.715 139.715h-243.847c-77.036 0-139.715-62.654-139.715-139.715v-31.545h-115.428c-77.036 0-139.715-62.654-139.715-139.715v-466.356c0-77.061 62.681-139.715 139.715-139.715h754.108c77.036 0 139.715 62.654 139.715 139.715v466.356c0 77.061-62.681 139.715-139.715 139.715zM306.26 702.809c0 46.227 37.603 83.829 83.829 83.829h243.847c46.227 0 83.829-37.603 83.829-83.829v-31.545h-411.506v31.545zM134.946 615.376h754.108c46.227 0 83.829-37.603 83.829-83.829v-179.119h-151.511v6.73c0 28.775-23.542 52.315-52.319 52.315-28.771 0-52.315-23.539-52.315-52.315v-6.73h-409.456v6.73c0 28.775-23.539 52.315-52.315 52.315-28.771 0-52.315-23.539-52.315-52.315v-6.73h-151.538v179.119c0 46.227 37.603 83.829 83.829 83.829zM889.054-18.635999999999967h-754.108c-46.227 0-83.829 37.603-83.829 83.829v231.349h151.538v-59.011c0-28.771 23.542-52.315 52.315-52.315 28.775 0 52.315 23.542 52.315 52.315v59.011h409.456v-59.011c0-28.771 23.542-52.315 52.315-52.315 28.775 0 52.319 23.542 52.319 52.315v59.011h151.511v-231.349c0-46.227-37.603-83.829-83.829-83.829z"  horiz-adv-x="1024" />

    
    <glyph glyph-name="ziliao" unicode="&#59180;" d="M896.876 24.915H257.27l24.56-24.56V75.19 250.092 450.663 602.501v37.46l-24.56-24.56h639.606l-24.56 24.56v-639.605c0-13.388 11.172-24.56 24.56-24.56s24.56 11.172 24.56 24.56V75.19 250.092 450.663 602.501v37.46c0 13.387-11.172 24.558-24.56 24.558H257.27c-13.387 0-24.559-11.17-24.559-24.559v-639.604c0-13.388 11.172-24.56 24.56-24.56h639.605c13.388 0 24.56 11.172 24.56 24.56s-11.172 24.559-24.56 24.559zM193.309 152.836h-63.96l24.559-24.56v74.835 174.902 200.571 151.838 37.46l-24.56-24.56h639.606l-24.56 24.56v-63.962c0-13.387 11.172-24.559 24.56-24.559s24.56 11.172 24.56 24.56v63.96c0 13.388-11.172 24.56-24.56 24.56H129.347c-13.388 0-24.559-11.172-24.559-24.56v-639.604c0-13.388 11.171-24.56 24.56-24.56h63.96c13.388 0 24.56 11.172 24.56 24.56 0 13.388-11.171 24.559-24.559 24.559zM385.191 455.501h383.763c13.388 0 24.559 11.171 24.559 24.56 0 13.387-11.171 24.559-24.56 24.559H385.192c-13.388 0-24.56-11.172-24.56-24.56 0.001-13.387 11.172-24.559 24.56-24.559zM385.191 295.6h383.763c13.388 0 24.559 11.171 24.559 24.56 0 13.387-11.171 24.559-24.56 24.559H385.192c-13.388 0-24.56-11.172-24.56-24.56 0.001-13.388 11.172-24.559 24.56-24.559zM385.191 135.698h383.763c13.388 0 24.559 11.171 24.559 24.56 0 13.387-11.171 24.559-24.56 24.559H385.192c-13.388 0-24.56-11.172-24.56-24.56 0.001-13.388 11.172-24.559 24.56-24.559z"  horiz-adv-x="1024" />

    
    <glyph glyph-name="jianlixiangqing-xiangmujingyan" unicode="&#58908;" d="M31.194901 475.279097h795.304009v-30.0942H31.194901zM117.790463 595.556248h486.290386v-30.094201h-486.290386zM654.80253 595.556248h69.35617v-30.094201h-69.35617zM781.25796-125.70805800000005H90.187505c-49.725185 0-90.182951 40.457766-90.182951 90.182951V655.644998c0 49.725185 40.457766 90.182951 90.182951 90.182951h691.070455c49.725185 0 90.182951-40.457766 90.182951-90.182951v-691.070455c0-49.824835-40.457766-90.2826-90.182951-90.282601zM90.187505 685.639548C73.64566 685.639548 60.093305 672.186843 60.093305 655.644998v-691.070455c0-16.541845 13.452705-30.0942 30.0942-30.0942h691.070455c16.541845 0 30.0942 13.452705 30.0942 30.0942V655.644998c0 16.541845-13.452705 30.0942-30.0942 30.0942H90.187505zM931.529661 24.563642999999956H831.182445v60.088751h100.347216c16.541845 0 30.0942 13.452705 30.0942 30.0942V805.817049c0 16.541845-13.452705 30.0942-30.0942 30.094201H240.359556c-16.541845 0-30.0942-13.452705-30.0942-30.094201v-90.481899h-60.08875V805.817049c0 49.725185 40.457766 90.182951 90.18295 90.182951h691.070456c49.725185 0 90.182951-40.457766 90.18295-90.182951v-691.070455c0.09965-49.725185-40.358116-90.182951-90.083301-90.182951z"  horiz-adv-x="1025" />

    
    <glyph glyph-name="bianji" unicode="&#59125;" d="M463.987 335.401c10.123-10.122 26.536-10.122 36.659 0L940.55 775.304c10.123 10.124 10.123 26.536 0 36.66-10.123 10.122-26.536 10.122-36.659 0L463.987 372.059c-10.123-10.123-10.123-26.536 0-36.658z m472.663 115.65c-12.343 0-22.349-10.007-22.349-22.351v-391.125c0-30.859-25.017-55.876-55.876-55.876h-692.85c-30.859 0-55.875 25.016-55.875 55.876v692.85c0 30.859 25.016 55.876 55.875 55.876H556.7c12.343 0 22.349 10.007 22.349 22.351C579.05 820.993 569.043 831 556.7 831H154.399C105.026 831 65 790.974 65 741.601v-715.2C65-22.974 105.026-63 154.399-63h715.2C918.974-63 959-22.974 959 26.401V428.7c0 12.344-10.006 22.351-22.35 22.351z"  horiz-adv-x="1024" />

    
    <glyph glyph-name="guanyu" unicode="&#58962;" d="M512 896C229.242435 896 0 666.779826 0 384s229.242435-512 512-512c282.779826 0 512 229.220174 512 512S794.779826 896 512 896z m0-979.478261C253.818435-83.478261 44.521739 125.818435 44.521739 384S253.818435 851.478261 512 851.478261c258.203826 0 467.478261-209.296696 467.478261-467.478261S770.203826-83.478261 512-83.478261zM512.001855 494.838725c-15.692058 0-28.456812-12.764754-28.456812-28.453102v-329.566609c0-15.690203 12.764754-28.453101 28.456812-28.453101 15.688348 0 28.453101 12.764754 28.453102 28.453101V466.385623c0 15.688348-12.764754 28.453101-28.453102 28.453102zM512 659.637797c-20.793507 0-37.708058-16.916406-37.708058-37.709913a37.817507 37.817507 0 0 1 18.854957-32.656696c5.722899-3.303884 12.245333-5.053217 18.854956-5.053217s13.130203 1.747478 18.854957 5.053217a37.815652 37.815652 0 0 1 18.853101 32.656696c0 20.793507-16.918261 37.709913-37.709913 37.709913z"  horiz-adv-x="1024" />

    
    <glyph glyph-name="edit-zhiwei-zhuangtai" unicode="&#58896;" d="M246.7 486.5c-16.1 0-29.3 13.2-29.3 29.3s13.2 29.3 29.3 29.3H781c16.1 0 29.3-13.2 29.3-29.3s-13.2-29.3-29.3-29.3H246.7M477.6 147.5c-3.2 0-6.4 1.3-8.6 3.6l-81.6 81.6c-4.8 4.8-4.8 12.5 0 17.3 4.8 4.8 12.5 4.8 17.3 0l72.7-72.7L623 333.6c4.6 4.9 12.3 5.2 17.3 0.6 4.9-4.6 5.2-12.3 0.6-17.3L486.5 151.39999999999998c-2.3-2.4-5.4-3.8-8.7-3.9h-0.2zM477.6 143.5c-4.3 0-8.4 1.7-11.5 4.8l-81.6 81.6c-3.1 3.1-4.8 7.1-4.8 11.5 0 4.3 1.7 8.4 4.8 11.5 3.1 3.1 7.1 4.8 11.5 4.8 4.3 0 8.4-1.7 11.5-4.8l69.7-69.7 142.7 153.2c3 3.2 7 5 11.3 5.2 4.3 0.2 8.5-1.4 11.6-4.3 6.6-6.1 6.9-16.4 0.8-22.9L489.4 148.70000000000005c-3-3.2-7.2-5.1-11.6-5.2h-0.2z m-81.7 106.2c-2.2 0-4.3-0.9-5.8-2.4-1.6-1.6-2.4-3.6-2.4-5.8s0.9-4.3 2.4-5.8l81.6-81.6c1.5-1.5 3.7-2.4 5.8-2.4h0.2c2.2 0 4.3 1 5.8 2.6l154.2 165.5c3.1 3.3 2.9 8.5-0.4 11.6-1.6 1.5-3.7 2.3-5.9 2.2-2.2-0.1-4.2-1-5.7-2.6L477.3 171.60000000000002l-75.6 75.6c-1.5 1.6-3.6 2.5-5.8 2.5zM477.9 137.39999999999998h-0.3c-6 0-11.6 2.3-15.9 6.6l-81.6 81.6c-4.2 4.2-6.6 9.9-6.6 15.9s2.3 11.6 6.6 15.9c4.2 4.2 9.9 6.6 15.8 6.6 6 0 11.6-2.3 15.9-6.6l65.2-65.2 138.4 148.5c4.2 4.5 10.2 7.1 16.4 7.1 5.7 0 11.1-2.1 15.3-6 4.4-4.1 6.9-9.6 7.1-15.6 0.2-6-1.9-11.7-6-16.1L494 144.5c-4.2-4.4-10-7-16.1-7.1z m-82 106.1c-0.4 0-0.9-0.1-1.4-0.6-0.5-0.5-0.6-1.1-0.6-1.4 0-0.4 0.1-0.9 0.6-1.4l81.6-81.6c0.4-0.4 0.9-0.6 1.4-0.6l0.2-10.2-0.2 10.2c0.5 0 1.1 0.2 1.4 0.6L633.1 324c0.5 0.5 0.6 1.1 0.5 1.5 0 0.4-0.1 0.9-0.7 1.4-0.5 0.5-1 0.5-1.4 0.5-0.4 0-1-0.1-1.5-0.6l-152.8-164-80.1 80.1c-0.2 0.5-0.8 0.6-1.2 0.6zM478 133.39999999999998h-0.4c-7.1 0-13.7 2.7-18.7 7.7l-81.6 81.7c-5 5-7.7 11.6-7.7 18.7s2.8 13.7 7.8 18.7 11.6 7.7 18.7 7.7 13.7-2.8 18.7-7.7l62.3-62.3 135.5 145.5c5 5.3 12 8.4 19.3 8.4 6.7 0 13.1-2.5 18-7.1 5.2-4.8 8.1-11.3 8.4-18.4 0.2-7.1-2.3-13.8-7.1-18.9L496.9 141.79999999999995c-4.9-5.3-11.8-8.3-18.9-8.4z m-82.1 126.4c-4.9 0-9.5-1.9-13-5.4-3.5-3.5-5.4-8.1-5.4-13s1.9-9.5 5.4-13l81.6-81.6c3.5-3.5 8.1-5.4 13-5.4h0.4c4.9 0.1 9.7 2.2 13.1 5.9l154.2 165.5c3.4 3.6 5.1 8.3 4.9 13.2-0.2 4.9-2.3 9.5-5.9 12.8-3.4 3.2-7.9 4.9-12.6 4.9-5.1 0-10-2.1-13.5-5.9l-141-151.5-68.1 68.1c-3.5 3.5-8.2 5.4-13.1 5.4z m77.9-112.3l-0.2 7.7-0.3 0.3-81.6 81.7c-1.1 1.2-1.8 2.7-1.8 4.3 0 1.6 0.6 3.1 1.8 4.3 1.1 1.1 2.7 1.8 4.3 1.8 1.6 0 3.1-0.6 4.3-1.8l77.2-77.2 149.9 161c1.2 1.2 2.7 1.9 4.4 1.9 1.5 0 3-0.6 4.1-1.6 1.2-1.1 1.9-2.6 1.9-4.2 0.1-1.6-0.5-3.1-1.6-4.3L482 155.70000000000005l-0.3-0.3 0.1-7.7-8-0.2zM394.5 240zM217.1-32.299999999999955c-65.3 0-118.3 53.1-118.3 118.3V620.2c0 65.3 53.1 118.3 118.3 118.3h59V680h-59c-32.9 0-59.8-26.7-59.8-59.8V86c0-32.9 26.7-59.8 59.8-59.8h593.5c32.9 0 59.8 26.7 59.8 59.8V620.2c0 32.9-26.7 59.8-59.8 59.8h-59v58.4h59c65.3 0 118.3-53.1 118.3-118.3V86c0-65.3-53.1-118.3-118.3-118.3H217.1M662.3 620.6c-16.1 0-29.3 13.2-29.3 29.3V768.5c0 16.1 13.2 29.3 29.3 29.3s29.3-13.2 29.3-29.3v-118.8c-0.1-16-13.1-29.1-29.3-29.1m-296.8 0c-16.1 0-29.3 13.2-29.3 29.3V768.5c0 16.1 13.2 29.3 29.3 29.3s29.3-13.2 29.3-29.3v-118.8c0-16-13.2-29.1-29.3-29.1m89.5 59.3v58.6h117.9V680H455v-0.1"  horiz-adv-x="1024" />

    
    <glyph glyph-name="save" unicode="&#58892;" d="M810.579-72.36199999999997H218.934c-75.412 0-136.533 61.121-136.533 136.533V701.326c0 75.412 61.121 136.533 136.533 136.533h477.867l250.311-250.311V64.16999999999996c0-75.412-61.121-136.533-136.533-136.533zM309.956-26.850000000000023h409.6V291.72799999999995c0 37.706-30.561 68.267-68.267 68.267H378.222c-37.706 0-68.267-30.561-68.267-68.267V-26.850000000000023z m591.645 590.848L674.046 792.35H241.691c-62.828 0-113.778-50.949-113.778-113.778v-591.645c0-62.828 50.949-113.778 113.778-113.778h22.755V314.48199999999997c0 50.267 40.755 91.022 91.022 91.022h318.578c50.267 0 91.022-40.755 91.022-91.022v-341.333h22.755c62.828 0 113.778 50.949 113.778 113.778v477.07z m-637.155 91.819h45.511v-136.533h-45.511V655.817z"  horiz-adv-x="1024" />

    
    <glyph glyph-name="jianlixiangqing-peixunjingli" unicode="&#58891;" d="M1143.946616 492.293613a25.441373 25.441373 0 0 1-25.441373-25.441373V365.20876999999996a25.441373 25.441373 0 0 1 50.821735 0V466.913251a25.441373 25.441373 0 0 1-25.380362 25.380362zM1144.068637 594.1201140000001a25.563394 25.563394 0 0 1-18.303146-43.500476 25.441373 25.441373 0 0 1 35.935176 0L1165.300286 554.341277a14.215443 14.215443 0 0 1 2.318398 4.331745 15.740705 15.740705 0 0 1 2.013347 4.575786 32.030505 32.030505 0 0 1 0 5.063871 25.441373 25.441373 0 0 1-25.563394 25.807435zM1143.946616 224.03050499999995c-14.032412 0-25.441373-14.337464-25.441373-31.969495v-128.12202c0-70.711153-45.513823-128.122021-101.70448-128.122021H152.526215c-56.129647 0-101.70448 57.288847-101.70448 128.122021V704c0 70.711153 45.513823 128.122021 101.70448 128.122021h864.335558c56.129647 0 101.70448-57.288847 101.704481-128.122021 0-17.693041 11.408961-31.969495 25.441372-31.969495s25.441373 14.337464 25.441373 31.969495c0 106.036225-68.270734 192-152.526215 192H152.526215C68.270734 896 0 810.0362250000001 0 704v-640c0-106.036225 68.270734-192 152.526215-192h864.335558c84.255481 0 152.526215 85.963775 152.526216 192v128.122021c0 17.57102-11.408961 31.908484-25.441373 31.908484zM971.714013 636.766444l-2.684461 1.28122-223.054338 90.051478a30.017159 30.017159 0 0 1-38.9857-16.777884l-154.600572-390.467111a30.017159 30.017159 0 0 1-3.599619-13.178265v-4.819829l30.017159-205.300286H248.617731a30.017159 30.017159 0 1 1 0-60.034318h364.049571a30.017159 30.017159 0 0 1 18.608198 6.589133l189.132508 150.085796 2.684461 2.684461 2.074357 2.074356a30.017159 30.017159 0 0 1 3.904671 6.589133l154.600572 390.467111a30.017159 30.017159 0 0 1-11.958056 40.755005z m-336.777883-512.488084l-19.218303 136.236416 126.962821-50.394662z m150.085796 133.551955l-167.168732 66.318398L750.42898 659.096282l167.229743-66.318398z"  horiz-adv-x="1169" />

    
    <glyph glyph-name="jianliku" unicode="&#59119;" d="M174.2 420.4H5.6V364h168.6v56.4z m0-112.9H5.6v-56.4h168.6v56.4z m0 225.8H5.6v-56.4h168.6v56.4zM117.9 872v-225.8h56.3V815.6h786.6v-846.9H174.2V138.1h-56.3v-225.8h899V872h-899z m224.8-790.3h56.2c0 93.6 75.5 169.4 168.6 169.4S736 175.3 736 81.7h56.1c0 85.7-48 159.2-118 197.6 70 38.2 118 111.9 118 197.6 0 124.7-100.7 225.8-224.8 225.8S342.7 601.6 342.7 476.9c0-85.7 48-159.2 118-197.6-69.9-38.4-118-111.9-118-197.6zM399 476.8c0 93.6 75.5 169.4 168.6 169.4s168.6-75.8 168.6-169.4-75.5-169.4-168.6-169.4S399 383.3 399 476.8z"  horiz-adv-x="1024" />

    
    <glyph glyph-name="jianlixiangqing-tuijianbaogao" unicode="&#58889;" d="M873.036962-16.429016000000047zM130.977833-25.972190999999953v724.45911c0 51.971749 42.288698 94.260447 94.260448 94.260447h483.875242c51.99121 0 94.260447-42.288698 94.260447-94.260447v-112.339693h-37.704422v112.339693c0 31.186212-25.368597 56.556025-56.556025 56.556025H225.237064c-31.187428 0-56.556025-25.369813-56.556025-56.556025v-645.443904l298.483916 241.615299 298.503377-241.615299V334.020568h37.703206v-359.992759L467.164955 246.12994100000003 130.977833-25.972190999999953zM784.122201 351.928314c-30.039231 0-58.005868 11.949038-78.720859 33.644376-41.50661 43.411353-39.952165 112.477136 3.440944 153.98253 20.382938 19.457326 47.09191 30.185188 75.243426 30.185188 30.039231 0 58.004651-11.949038 78.758565-33.644376 20.086159-21.031232 30.814021-48.645139 30.148698-77.722268-0.665322-29.077129-12.614361-56.174104-33.626131-76.261479-20.347665-19.47557-47.093126-30.183972-75.244643-30.183971z m-0.036489 198.874133c-23.269244 0-45.316096-8.859609-62.147407-24.933158-17.387165-16.609942-27.22712-38.990063-27.780541-63.017068-0.518148-24.027006 8.323216-46.814591 24.933158-64.182295 17.126874-17.923558 40.211239-27.800002 65.033712-27.800002 23.269244 0 45.316096 8.859609 62.14619 24.933157 17.387165 16.609942 27.22712 38.973034 27.781758 62.998824 0.553421 24.027006-8.286726 46.832836-24.896669 64.200539-17.12809 17.923558-40.248945 27.800002-65.070201 27.800003zM844.46217 490.636411a6.029253 6.029253 0 0 1-8.520258 0.19461l-64.694362-61.849411-27.806084 29.085643a6.538888 6.538888 0 0 1-9.250044 0.20799 6.54132 6.54132 0 0 1-0.210422-9.250045l31.611921-33.066629c0.070546-0.074195 0.183663-0.045004 0.256641-0.113117 0.066897-0.075411 0.029191-0.187312 0.100954-0.261506a6.026821 6.026821 0 0 1 8.520258-0.190961l0.374624 0.357595 69.423378 66.368006a6.025604 6.025604 0 0 1 0.193394 8.517825zM253.293708 634.432337c-15.233078 0-27.582283 12.349205-27.582283 27.582282s12.349205 27.582283 27.582283 27.582283h427.528423c15.233078 0 27.582283-12.349205 27.582283-27.582283s-12.349205-27.582283-27.582283-27.582282H253.293708zM253.293708 501.200071c-15.233078 0-27.582283 12.349205-27.582283 27.582283s12.349205 27.582283 27.582283 27.582283H577.388267c15.233078 0 27.582283-12.349205 27.582283-27.582283s-12.349205-27.582283-27.582283-27.582283H253.293708zM253.293708 367.967806c-15.233078 0-27.582283 12.349205-27.582283 27.582282s12.349205 27.582283 27.582283 27.582283h213.764212c15.233078 0 27.582283-12.349205 27.582282-27.582283s-12.349205-27.582283-27.582282-27.582282H253.293708z"  horiz-adv-x="1024" />

    
    <glyph glyph-name="guwen" unicode="&#59325;" d="M527.677 333.525l14.712 14.559a10.331 10.331 0 0 1 3.072 7.34c0 2.755-1.104 5.396-3.072 7.34L517.68 387.23a10.52 10.52 0 0 1-7.408 3.043 10.52 10.52 0 0 1-7.408-3.043l-24.713-24.466a10.315 10.315 0 0 1-3.073-7.34c0-2.749 1.106-5.392 3.073-7.34l14.712-14.559-20.818-165.654s-0.238-2.898-0.238-4.381c0.233-20.875 17.384-37.673 38.461-37.673 21.081 0 38.232 16.798 38.465 37.673 0 1.483-0.242 4.381-0.242 4.381l-20.814 165.654z m-17.406 68.417c-108.171 0-196.207 87.124-196.207 194.213 0 107.087 88.014 194.213 196.207 194.213 108.189 0 196.207-87.121 196.207-194.209 0-107.088-88.031-194.217-196.207-194.217z m-1.54 329.507c-78.968 0-143.22-63.591-143.22-141.758 0-78.176 64.253-141.763 143.22-141.763 78.981 0 143.228 63.586 143.228 141.763 0 78.167-64.247 141.758-143.228 141.758z m0 0M510.271-26.368c-163.69 0-328.876 45.807-328.876 148.136 0 179.506 147.521 325.549 328.876 325.549 181.351 0 328.881-146.039 328.881-325.549-0.009-102.328-165.182-148.136-328.881-148.136z m0 425.747c-148.767 0-269.796-119.803-269.796-267.062 0-54.931 118.516-97.952 269.796-97.952 151.285 0 269.805 43.017 269.805 97.952-0.009 147.263-121.038 267.062-269.805 267.062z m0 0"  horiz-adv-x="1024" />

    
    <glyph glyph-name="jianlixiangqing-jiaoyujingli" unicode="&#58990;" d="M512 896a512 512 0 1 1 512-512A512 512 0 0 1 512 896z m0-972.8a460.8 460.8 0 1 0 460.8 460.8 460.8 460.8 0 0 0-460.8-460.8z m204.8 486.4s10.496 3.84 10.496 4.608l70.4 13.312a35.84 35.84 0 0 1 0 65.536l-252.416 139.008a73.472 73.472 0 0 1-66.304 0l-252.672-139.008a35.84 35.84 0 0 1 0-65.536L307.2 396.288v-202.24c0-11.008-4.352-23.552 12.288-39.168a155.136 155.136 0 0 1 48.64-28.672A404.48 404.48 0 0 1 512 102.39999999999998a404.48 404.48 0 0 1 143.616 23.808 153.6 153.6 0 0 1 48.64 28.672c17.92 16.64 11.776 31.744 12.288 43.264v2.048z m-14.592 22.784C685.312 423.168 665.6 403.2 665.6 384v-230.4H358.4v230.4c0 19.2-19.456 38.912-36.608 48.384l-51.2 27.648 232.448 128a23.04 23.04 0 0 0 16.384 0l232.192-128zM793.6 384a25.6 25.6 0 0 1-25.6-25.6v-128a25.6 25.6 0 0 1 51.2 0v128a25.6 25.6 0 0 1-25.6 25.6z"  horiz-adv-x="1024" />

    
    <glyph glyph-name="edit-zhiwei-qiyexinxi" unicode="&#58954;" d="M790.528 139.23839999999996V439.3472a54.3488 54.3488 0 0 1-57.4464 50.432H591.36V629.248a62.336 62.336 0 0 1-62.2592 62.2592H266.7264a62.336 62.336 0 0 1-62.2592-62.2592v-492.2624a35.072 35.072 0 0 1 35.0464-35.0464h529.3568a25.2928 25.2928 0 0 1 25.216 25.216 24.4736 24.4736 0 0 1-3.5584 12.0832z m-249.6256 13.1328H254.8992V629.248a11.8528 11.8528 0 0 0 11.8528 11.8272h262.3232a11.8528 11.8528 0 0 0 11.8272-11.8272v-476.8768z m50.4576 286.976h141.7472c4.2752 0 7.0144-1.6128 7.04 0v-286.976H591.36v286.976z m-129.664 48.1792h-127.5392a23.04 23.04 0 0 1 0-46.08h127.5136a23.04 23.04 0 0 1-0.0256 46.08z m0-85.1968h-127.5392a23.04 23.04 0 0 1 0-46.08h127.5136a23.04 23.04 0 0 1-0.0256 46.08z m235.3664-23.04h-77.1328a23.04 23.04 0 0 1 0-46.08h77.1072a23.04 23.04 0 0 1-0.0256 46.1312z m0-85.1968h-77.1328a23.04 23.04 0 0 1 0-46.08h77.1072a23.04 23.04 0 0 1-0.0256 46.1312z"  horiz-adv-x="1024" />

    
    <glyph glyph-name="edit-zhiwei-shedingzhiweiyaoqiu" unicode="&#58885;" d="M343.043 797.972H181.561c-32.564 0-53.826-20.973-53.826-53.826v-597.828l107.654-190.076c16.242-25.047 37.584-25.047 53.827 0L396.87 146.31799999999998V744.146c-0.001 32.854-21.263 53.826-53.827 53.826z m-80.741-787.429L181.561 152.04999999999995h161.482l-80.741-141.507z m80.741 195.332H181.561V555.751h161.482v-349.876z m0 511.358v-107.655H181.561V717.233c-0.841 26.598 0.526 27.754 26.913 26.913h107.654c26.389-0.185 27.019 0.893 26.915-26.913z m526.316-511.358H477.61c-14.876 0-26.914-12.036-26.914-26.912 0-14.878 12.037-26.913 26.914-26.913h391.75c14.875 0 26.913 12.035 26.913 26.913-0.001 14.876-12.039 26.912-26.914 26.912zM477.61 717.233h161.481c14.875 0 26.913 12.037 26.913 26.913s-12.038 26.913-26.913 26.913H477.61c-14.876 0-26.914-12.037-26.914-26.913s12.037-26.913 26.914-26.913z m0-188.395h391.75c14.875 0 26.913 12.037 26.913 26.914 0 14.876-12.038 26.913-26.913 26.913H477.61c-14.876 0-26.914-12.036-26.914-26.913s12.037-26.914 26.914-26.914z m0-188.395h242.222c14.875 0 26.913 12.038 26.913 26.913 0 14.877-12.038 26.913-26.913 26.913H477.61c-14.876 0-26.914-12.036-26.914-26.913 0-14.875 12.037-26.913 26.914-26.913z"  horiz-adv-x="1024" />

    
    <glyph glyph-name="no_data" unicode="&#58883;" d="M921.598797 859.951292A35.989612 35.989612 0 0 0 885.569787 824.001077h-143.899351a35.979763 35.979763 0 1 0 0 71.959526H885.569787a36.009311 36.009311 0 0 0 36.02901-36.009311z m195.943443 0c0-19.876036-11.346479-35.969913-25.33259-35.969913h-101.271261c-14.00581 0-25.33259 16.113576-25.33259 35.969913s11.32678 36.048708 25.33259 36.048708h101.271261c14.00581 0 25.33259-16.113576 25.33259-35.989612z m219.936518-145.948022a41.978031 41.978031 0 0 0-41.99773-41.99773H879.660163a41.987881 41.987881 0 0 0 0 83.975762h415.820865a41.978031 41.978031 0 0 0 41.99773-41.978032z m111.967681-149.946867a40.008157 40.008157 0 0 0-40.008156-40.008156h-627.799088a39.998307 39.998307 0 0 0 0 79.996614h627.799088a40.027855 40.027855 0 0 0 40.027855-39.988458z m35.989612-141.968874a41.99773 41.99773 0 0 0-41.99773-41.99773h-115.986226a41.99773 41.99773 0 0 0 0 83.99546h115.986226a41.978031 41.978031 0 0 0 41.99773-41.99773z m-231.952753 0c0-23.205125-27.932824-41.99773-62.464729-41.99773H388.176409c-34.472808 0-62.425331 18.792605-62.425332 41.99773S353.7036 464.06556 388.176409 464.06556h802.861858c34.531905 0 62.464729-18.792605 62.464729-41.99773z m0 0M569.68067 336.12219400000004a43.987304 43.987304 0 0 0-44.007003-44.007002h-59.982686a43.987304 43.987304 0 1 0 0 87.974607h59.982686a43.987304 43.987304 0 0 0 44.007003-43.967605z m0 0M1001.575712 250.13716a47.986149 47.986149 0 0 0-47.986149-48.005848H265.768391a47.986149 47.986149 0 0 0-41.564358 23.993075 47.946752 47.946752 0 0 0 0 47.986149 47.986149 47.986149 0 0 0 41.564358 23.993075h687.801473a47.986149 47.986149 0 0 0 47.98615-47.98615z m615.841949-169.547121a47.572476 47.572476 0 0 0-47.552777-47.552777H997.143494a47.572476 47.572476 0 0 0 0 95.125253h572.701691a47.592174 47.592174 0 0 0 47.572476-47.552777z m0 0M1137.536469-1.376449999999977a34.413712 34.413712 0 0 0-34.433411-34.374315H1055.963955a34.423562 34.423562 0 1 0 0 68.847123h47.139103a34.45311 34.45311 0 0 0 34.433411-34.413712z m0 0M1521.465061-70.08568200000002a34.29552 34.29552 0 0 0-34.334917-34.29552H847.886083a34.29552 34.29552 0 0 0 0 68.59104h639.244061a34.315218 34.315218 0 0 0 34.334917-34.29552z m131.981609 0a34.29552 34.29552 0 0 0-34.275821-34.29552h-27.381259a34.29552 34.29552 0 1 0 0 68.59104h27.381259a34.29552 34.29552 0 0 0 34.275821-34.29552z m0 0M1232.740516 840.725314h-600.614816s-46.193563 5.771733-49.108978-54.861012 0-696.528019 0-779.223362c-0.965239-67.527307 82.73474-82.242272 112.61774-43.790316 40.441529 49.06958 14.439182 106.846007 5.791432 109.761422s563.108401 0 563.108401 0V762.757671s7.879499 78.125233-31.793779 77.967643z m0 0M648.593853-65.49587399999996c-20.703384 0-40.323336 7.879499-53.816979 21.570129-12.843583 13.040571-19.50176 30.572456-19.206279 50.665179 0 18.497124-0.137891 65.005867-0.334878 126.840236-0.669757 211.584249-1.969875 605.460708 0.334878 652.639209 2.186561 45.819287 29.016255 62.12985 53.383606 62.12985a33.724256 33.724256 0 0 0 4.117039-0.216686h599.688975a31.517996 31.517996 0 0 0 24.288556-10.69642c20.092723-22.200489 15.128638-73.279341 14.911952-75.387107v-696.921994h-7.505223s-254.113845 1.300117-420.942539 1.300117c-75.623492 0-111.278226-0.275782-127.706981-0.571263a90.614239 90.614239 0 0 0 5.259566-13.789124 102.157705 102.157705 0 0 0-19.698748-93.884231c-11.602562-14.951349-30.907335-23.638497-52.812343-23.638497z m-19.698748 898.912953c-10.873709 0-36.383587-4.688302-38.471654-47.907355-2.186561-46.804224-0.94554-440.4246-0.334879-651.851259 0.196987-61.775273 0.334879-108.343112 0.334879-126.997826-0.236385-16.133274 4.924687-29.942096 14.911952-40.067253a60.691842 60.691842 0 0 1 43.199354-17.118211c17.275802 0 32.266549 6.539984 41.150684 17.984956a86.339611 86.339611 0 0 1 19.935132 65.734721c-1.969875 18.280438-9.041725 30.82854-11.464671 32.71962a7.07185 7.07185 0 0 0-4.176134 7.879499c0.47277 2.935113 0.748552 4.708001 9.849373 5.791432 14.124002 1.694092 49.483254 1.694092 139.723218 1.694092 149.927168 0 370.336456-1.044034 413.496412-1.241021V762.757671c1.359214 13.670931 1.969875 50.349999-11.110094 64.730085a16.606044 16.606044 0 0 1-13.099667 5.771733H632.1257c-1.044034 0-1.969875 0.137891-3.171499 0.137891z m0 0M660.767679 709.29527h528.340111v-145.160072H660.767679z m0-195.017602h500.092107v-31.281612H660.767679z m0-77.297886H924.967283v-31.281611H660.767679z m0-90.299059h434.77106v-31.281612H660.767679z m0-89.767194h319.986457v-31.281611H660.767679z m778.829386-119.925975c12.981475-12.961776 16.645442-30.651251 8.194679-39.515688s-25.805359-5.515649-38.747436 7.465825l-124.496085 124.555182c-12.942077 12.961776-16.625743 30.67095-8.155282 39.515687s25.785661 5.515649 38.708039-7.465825z m0 0M1435.164847 88.86351300000001c-9.534194 0-20.28971 5.042879-28.720774 13.513341l-124.496085 124.555181c-14.616471 14.616471-18.221342 34.275821-8.214378 44.735856 9.514495 10.06606 30.079988 6.559683 44.0464-7.426427l124.476386-124.555182c14.616471-14.596772 18.260739-34.236423 8.253776-44.716157a20.506396 20.506396 0 0 0-15.365024-6.126311z m-146.085912 181.464864a13.395148 13.395148 0 0 1-9.849374-3.78216c-6.973357-7.268838-3.250293-22.988439 8.076486-34.334917l124.496086-124.555182c7.07185-7.07185 15.758998-11.307081 23.441509-11.307081a13.473943 13.473943 0 0 1 9.770579 3.821557c6.953658 7.288537 3.210896 22.988439-8.115884 34.29552l-124.476386 124.57488c-7.07185 7.091549-15.758998 11.32678-23.461209 11.32678z m0 0M1273.930598 265.640075c-9.534194-2.856318 3.545775 5.555047-1.162227-6.14601-1.713791-10.06606 2.383548-18.457727 9.987266-26.159937l118.192486-120.260854c12.173826-12.42991 36.501779-25.037108 42.4705-17.551584 0.610661 0.78795 1.300117 1.477406 1.969874 2.245657z m0 0M1294.633981 485.14322a175.200662 175.200662 0 1 1 0-247.790547 175.318854 175.318854 0 0 1 0 247.790547M1170.787955 178.689802a182.567993 182.567993 0 1 0 129.105592 53.462402 181.52396 181.52396 0 0 0-129.125291-53.403305z m0 350.184638A167.656041 167.656041 0 1 1 1289.394115 479.844257a166.592309 166.592309 0 0 1-118.527365 49.030183z m0 0M1266.957241 401.068965h-21.451936v7.465825h21.451936z m-43.849412 0H1200.74975v7.465825h22.397476z m-44.775254 0h-22.397476v7.465825h22.397476z m-44.794952 0h-22.377777v7.465825h22.377777z m-44.755555 0h-22.397476v7.465825h22.397476z m122.861089 61.066118h-22.397476v7.465825h22.397476z m-44.775253 0h-22.397476v7.465825h22.397476z m-44.775253 0h-22.417175v7.465825h22.397476z m165.587672-140.94454H1266.740555v7.485524h20.939768z m-43.337244 0h-22.377778v7.485524h22.377778z m-44.775254 0H1177.111253v7.485524h22.456572z m-44.775253 0H1132.395096v7.485524h22.397476z m-44.794953 0h-22.377777v7.485524h22.377777z m-44.755554 0h-22.417175v7.485524h22.397476z m155.501914-74.855241h-22.417175v7.485524h22.397476z m-44.794952 0H1153.472756v7.485524h22.456572z m-44.755555 0H1108.756598v7.485524h22.397476z m0 0M693.093324 77.73372099999995s54.939807-103.418425-47.395187-135.783468c114.646711 1.024335 659.612566-2.856318 659.612566-2.856318s43.337245 26.987284 55.156493 56.318719-8.667449 70.698805-26.002347 82.73474c-37.860993 3.683666-641.470019-0.433372-641.470019-0.433372z m0 0M1306.374435-64.62912900000003h-1.083431c-4.235231 0-425.729335 3.013908-602.4468 3.013909-23.638497 0-43.002366 0-56.535406-0.15759h-0.196987l-6.067215 0.669757-0.47277 3.604871 0.196988 3.545774h3.900352l1.654695-0.177288c27.105477 8.726545 45.051036 23.461208 53.363907 43.73122 15.916588 38.865629-8.667449 86.024431-8.903834 86.497201l-2.895716 5.436854h6.14601c2.895716 0 290.655022 1.969875 479.11294 1.969875 97.430006 0 152.212223-0.512167 162.770752-1.536503l0.965239-0.098493 0.807649-0.551565c19.245676-13.355751 39.653579-56.830887 27.322163-87.206356s-54.90041-56.94908-56.732394-58.091607z m-603.530231 10.479734c172.285247 0 577.173307-2.83662 601.402766-3.013908 6.185407 3.93975 42.450801 28.405594 52.871439 53.994267 11.149491 27.578247-8.529558 66.207491-23.874882 77.71156-12.449609 0.94554-66.621165 1.41831-161.037262 1.418309-173.467172 0-431.087394-1.654695-473.163919-1.969874 6.303599-14.124002 20.703384-52.910836 6.638478-87.344248-7.170344-17.551584-20.644288-31.242214-40.185446-40.8946h37.427621z m0 0M1681.399193 626.501433a54.74282 54.74282 0 0 0-55.156493-54.309447H1384.913342a54.74282 54.74282 0 0 0-55.156494 54.309447v18.39863a54.762519 54.762519 0 0 0 55.156494 54.309448H1626.2427a54.762519 54.762519 0 0 0 55.156493-54.309448z m0 0M1626.2427 569.394764H1384.913342a57.599138 57.599138 0 0 0-57.953716 57.126368v18.39863a57.599138 57.599138 0 0 0 57.953716 57.126368H1626.2427a57.599138 57.599138 0 0 0 57.953715-57.126368v-18.39863a57.618837 57.618837 0 0 0-57.953715-57.126368z m-241.329358 127.017525a51.984995 51.984995 0 0 1-52.339573-51.512226v-18.39863a51.984995 51.984995 0 0 1 52.339573-51.59102H1626.2427a51.984995 51.984995 0 0 1 52.339572 51.512225v18.39863A51.984995 51.984995 0 0 1 1626.2427 696.412289z m0 0M1433.86473 515.3414l21.117057 59.569013h78.046439z m25.076506 54.053364l-14.596772-41.229479 68.492545 41.229479z m0 0M1455.040884 558.1467789999999l8.33257 23.933978 23.008137 4.648905 23.421811-5.003482 7.879499-3.821557 7.741608-0.906143-39.397495-23.638497z m1.516803 0M1429.255223 637.631226a16.822731 16.822731 0 1 0-16.822731 16.310563 16.822731 16.822731 0 0 0 16.822731-16.310563z m101.44855 0a16.842429 16.842429 0 1 0-16.82273 16.310563 16.822731 16.822731 0 0 0 16.82273-16.310563z m101.448551 0a16.842429 16.842429 0 1 0-16.803032 16.310563 16.822731 16.822731 0 0 0 16.803032-16.310563z m0 0"  horiz-adv-x="1718" />

    


  </font>
</defs>
</svg>
